<?xml version="1.0" standalone="no"?>
<!DOCTYPE svg PUBLIC "-//W3C//DTD SVG 1.0//EN" "http://www.w3.org/TR/2001/REC-SVG-20010904/DTD/svg10.dtd">
<svg xmlns="http://www.w3.org/2000/svg" xmlns:xlink="http://www.w3.org/1999/xlink" id="body_1" width="180" height="70">

<g transform="matrix(0.15 0 0 0.14893618 0 0)">
	<path transform="matrix(1 0 0 1 151 151)" d="M0 0C 5.528805 4.3910747 8.470635 10.616716 11.875 16.6875C 12.868724 18.434855 13.862461 20.182203 14.856949 21.929123C 15.887717 23.74206 16.915052 25.556908 17.941895 27.37207C 21.198393 33.121593 24.50775 38.84061 27.8125 44.5625C 28.742437 46.177414 28.742437 46.177414 29.691162 47.82495C 32.48908 52.679268 35.300236 57.524067 38.164062 62.339844C 38.63739 63.136402 39.110718 63.932964 39.59839 64.75366C 40.464256 66.20614 41.333954 67.65634 42.208252 69.10376C 45 73.78197 45 73.78197 45 76C 45.66 76 46.32 76 47 76C 47.20367 75.22914 47.407345 74.45828 47.617188 73.66406C 49.548576 68.54643 52.32503 64.0618 55.125 59.375C 56.393192 57.22861 57.660065 55.081444 58.92578 52.933594C 59.590454 51.806793 60.255127 50.67999 60.93994 49.519043C 64.10736 44.125813 67.19168 38.68501 70.28281 33.247833C 79.59602 16.873999 79.59602 16.873999 84.3125 8.9375C 84.968636 7.832773 85.62476 6.728047 86.30078 5.5898438C 88.99778 1.4792415 89.96741 0.2331657 94.875 -0.875C 98.77965 -1.2338833 100.91107 -0.5438208 104 2C 106.052986 5.079484 106.249214 5.6873465 106.24051 9.15715C 106.243256 10.002689 106.24601 10.848229 106.24884 11.719391C 106.23805 13.105823 106.23805 13.105823 106.22705 14.520264C 106.22734 15.496058 106.22764 16.471853 106.227936 17.477219C 106.22654 20.70756 106.21097 23.93767 106.19531 27.167969C 106.19158 29.405704 106.188736 31.643442 106.18674 33.88118C 106.17909 39.7749 106.15944 45.668518 106.13733 51.562195C 106.11688 57.574654 106.107735 63.587128 106.09766 69.59961C 106.076195 81.39979 106.04101 93.199875 106 105C 99.73 105 93.46 105 87 105C 86.505 76.29 86.505 76.29 86 47C 75.90003 64.5795 75.90003 64.5795 65.96094 82.25C 65.33462 83.377365 64.70829 84.50473 64.06299 85.66626C 62.87759 87.805115 61.696106 89.946144 60.519043 92.0896C 53.671543 104.44282 53.671543 104.44282 49 106C 42.85682 106.68258 42.85682 106.68258 39.67578 104.14844C 35.867397 100.06227 33.305378 95.07723 30.5625 90.25C 29.961393 89.2061 29.360289 88.1622 28.740967 87.08667C 22.533588 76.272285 16.451883 65.38566 10.403564 54.48169C 8.978976 51.962826 7.488851 49.48142 6 47C 5.67 66.14 5.34 85.28 5 105C -1.27 105 -7.54 105 -14 105C -14.0903425 92.04798 -14.16374 79.096176 -14.207249 66.14392C -14.228129 60.12976 -14.256457 54.115833 -14.301758 48.101807C -14.345196 42.29871 -14.369133 36.495834 -14.379509 30.692587C -14.386904 28.47777 -14.401344 26.262966 -14.42292 24.048243C -14.451927 20.94767 -14.455957 17.848001 -14.454102 14.747314C -14.468483 13.830217 -14.482863 12.913119 -14.497681 11.968231C -14.470782 7.818621 -14.346185 5.572945 -12.159119 1.9532928C -8.1858425 -1.641216 -5.007325 -1.2086647 0 0z" stroke="none"  fill="#164194" fill-rule="nonzero" />
	<path transform="matrix(1 0 0 1 331.96802 151.3689)" d="M0 0C 1.1815089 -0.01073296 1.1815089 -0.01073296 2.3868866 -0.02168274C 4.984024 -0.03855445 7.5794306 -0.01917215 10.176514 0.00219727C 11.988665 0.00136817 13.800815 -0.00109274 15.612961 -0.00511169C 19.410173 -0.00796897 23.206795 0.00671997 27.003906 0.03417969C 31.856133 0.06818943 36.7073 0.06226798 41.559574 0.04351711C 45.302715 0.03291251 49.045612 0.04191748 52.788734 0.05690193C 54.576782 0.06206378 56.364857 0.06162633 58.1529 0.05535698C 60.66108 0.04986568 63.167774 0.07040552 65.67578 0.09765625C 66.40592 0.09113037 67.13607 0.08460449 67.888336 0.07788086C 74.15504 0.19282486 79.29595 2.2700906 84.05542 6.3771973C 84.72444 7.214443 84.72444 7.214443 85.40698 8.0686035C 86.09921 8.901982 86.09921 8.901982 86.80542 9.752197C 91.00677 16.188015 90.399315 22.89565 90.40698 30.318604C 90.43147 31.547724 90.45596 32.776844 90.4812 34.043213C 90.516846 45.182537 88.18119 53.415115 80.44214 61.588135C 74.21857 66.86355 66.80097 69.54579 59.031982 71.6311C 65.28111 77.42092 71.6161 82.97476 78.25073 88.32251C 82.20152 91.60189 85.95807 95.071175 89.71948 98.5647C 92.05001 100.7448 92.05001 100.7448 95.03198 102.6311C 95.03198 103.29111 95.03198 103.9511 95.03198 104.6311C 90.94341 104.85611 86.8573 105.01802 82.763916 105.12549C 81.37656 105.17034 79.98962 105.23145 78.60376 105.31006C 67.13016 105.9438 67.13016 105.9438 62.015137 102.74365C 59.52043 100.48654 57.269855 98.140175 55.031982 95.6311C 53.234566 94.133644 51.425575 92.64969 49.594482 91.1936C 45.689144 88.035034 41.925888 84.77111 38.219482 81.3811C 37.30167 80.55224 36.383858 79.723366 35.438232 78.869385C 33.031982 76.6311 33.031982 76.6311 31.500732 74.92407C 26.70025 69.84551 19.488972 70.81385 13.031982 70.6311C 13.031982 64.031105 13.031982 57.431103 13.031982 50.631104C 17.908506 50.575027 17.908506 50.575027 22.883545 50.517822C 26.041002 50.471577 29.198341 50.420353 32.355713 50.368652C 34.545746 50.33545 36.73586 50.307404 38.926025 50.284668C 42.0789 50.251034 45.231 50.198715 48.383545 50.142822C 49.358772 50.136433 50.333996 50.130043 51.338776 50.12346C 56.636818 50.009533 60.465233 49.616085 65.03198 46.631104C 72.44531 38.817055 70.03198 32.23987 70.03198 20.631104C 38.351982 20.136103 38.351982 20.136103 6.0319824 19.631104C 6.0319824 47.681103 6.0319824 75.7311 6.0319824 104.6311C -0.23801757 104.6311 -6.5080175 104.6311 -12.968018 104.6311C -13.080948 91.80948 -13.172693 78.98818 -13.227078 66.166176C -13.25318 60.212482 -13.288588 54.259148 -13.345215 48.305664C -13.399515 42.56091 -13.429434 36.816498 -13.442404 31.071508C -13.451647 28.879 -13.469697 26.686512 -13.496668 24.49415C -13.53293 21.424559 -13.537964 18.356392 -13.535645 15.286621C -13.553621 14.378875 -13.571597 13.4711275 -13.590118 12.535873C -13.55534 8.286132 -13.333171 6.1802344 -10.930542 2.5670776C -7.229643 0.1485844 -4.283606 -0.06803002 0 0z" stroke="none"  fill="#164194" fill-rule="nonzero" />
	<path transform="matrix(1 0 0 1 485.6289 151.823)" d="M0 0C 1.656969 -0.01925285 1.656969 -0.01925285 3.347412 -0.03889465C 5.122572 -0.04997505 5.122572 -0.04997505 6.9335938 -0.0612793C 8.1576395 -0.06935104 9.381684 -0.07742279 10.642822 -0.08573914C 13.228338 -0.09955303 15.813873 -0.1102872 18.399414 -0.11816406C 22.356468 -0.13543421 26.312698 -0.17935278 30.269531 -0.22338867C 32.782547 -0.23351113 35.295567 -0.24202862 37.808594 -0.2487793C 38.992035 -0.2662874 40.175472 -0.28379548 41.394775 -0.3018341C 49.596424 -0.28011268 49.596424 -0.28011268 53.59375 2.0786133C 57.10795 6.2275896 56.505203 10.195155 56.48462 15.4001465C 56.484764 16.356289 56.484913 17.312431 56.48506 18.297546C 56.484364 21.468325 56.476574 24.639046 56.46875 27.809814C 56.466885 30.004139 56.46546 32.198467 56.464462 34.39279C 56.46064 40.176342 56.45081 45.95987 56.43976 51.74341C 56.42954 57.64184 56.424965 63.54028 56.41992 69.43872C 56.409187 81.01816 56.391594 92.59757 56.371094 104.177C 49.771095 104.177 43.171093 104.177 36.371094 104.177C 36.371094 95.597 36.371094 87.017 36.371094 78.177C 15.251094 78.177 -5.868906 78.177 -27.628906 78.177C -27.628906 86.757 -27.628906 95.337006 -27.628906 104.177C -34.228905 104.177 -40.828907 104.177 -47.628906 104.177C -47.69709 96.561264 -47.751957 88.94563 -47.784344 81.32966C -47.7999 77.79201 -47.82095 74.25457 -47.855225 70.71704C -47.894512 66.63596 -47.9087 62.55512 -47.921875 58.473877C -47.9451 56.59814 -47.9451 56.59814 -47.968796 54.68451C -47.97161 39.765667 -44.15768 25.099146 -33.66797 13.985596C -24.302689 5.678843 -12.584935 0.12789835 0 0zM-21.441406 30.927002C -28.700985 39.86059 -27.628906 47.127693 -27.628906 59.177002C -6.5089064 59.177002 14.6110935 59.177002 36.371094 59.177002C 36.371094 45.977 36.371094 32.777 36.371094 19.177002C 31.008595 19.115128 25.646093 19.053251 20.121094 18.989502C 17.622408 18.948534 17.622408 18.948534 15.073242 18.906738C 1.0533324 18.772871 -11.353159 20.35536 -21.441406 30.927002z" stroke="none"  fill="#164194" fill-rule="nonzero" />
	<path transform="matrix(1 0 0 1 761.2578 149.79688)" d="M0 0C 0.7843039 -0.00570007 1.5686078 -0.01140015 2.3766785 -0.01727295C 4.0323553 -0.02668289 5.6880507 -0.03324092 7.34375 -0.03710938C 9.838887 -0.04676548 12.333182 -0.07780593 14.828125 -0.109375C 30.42014 -0.21397172 43.22241 2.0055025 55.054688 12.953125C 63.061726 21.413086 66.03684 31.804884 66.11328 43.179688C 66.12231 44.026794 66.13134 44.873898 66.14064 45.746674C 66.15508 47.53339 66.16402 49.32016 66.167725 51.106934C 66.179565 53.800095 66.22876 56.490917 66.2793 59.183594C 66.40529 72.55695 64.66616 83.6806 55.683594 94.27344C 46.17582 103.723816 34.11054 107.35289 21.039062 107.37109C 20.201836 107.37442 19.36461 107.377754 18.502014 107.38118C 16.733608 107.38623 14.965191 107.38859 13.196777 107.38843C 10.515136 107.39061 7.833912 107.40876 5.1523438 107.427734C 3.4270847 107.43067 1.7018237 107.432655 -0.0234375 107.43359C -1.2098483 107.444374 -1.2098483 107.444374 -2.420227 107.45537C -14.62133 107.406235 -25.419966 103.60231 -34.441406 95.21875C -45.259457 83.2142 -46.43752 69.36154 -46.445312 53.890625C -46.457558 52.622833 -46.469803 51.355038 -46.48242 50.04883C -46.504284 35.977676 -43.885353 25.724829 -36.070312 13.890625C -25.748102 4.0271797 -14.065435 0.08070065 0 0zM-21.195312 28.078125C -21.740585 28.714922 -22.28586 29.351719 -22.847656 30.007812C -27.08186 36.599564 -26.630173 43.874557 -26.628418 51.406006C -26.63278 53.500023 -26.66912 55.591904 -26.707031 57.685547C -26.78326 66.553665 -26.128344 73.59389 -20.292969 80.54297C -19.641993 81.0702 -18.991016 81.59742 -18.320312 82.140625C -17.671913 82.6859 -17.023516 83.23117 -16.355469 83.79297C -11.34386 87.16204 -6.691731 87.52211 -0.7734375 87.53906C 0.04159241 87.54572 0.85662234 87.552376 1.6963501 87.559235C 3.417661 87.569336 5.139011 87.57405 6.8603516 87.57373C 9.470073 87.57809 12.078079 87.61439 14.6875 87.65234C 28.004385 87.849495 28.004385 87.849495 39.484863 81.71167C 47.025375 73.8768 47.2428 64.178635 47.179688 53.828125C 47.19967 52.673126 47.21965 51.518124 47.240234 50.328125C 47.235664 42.229694 46.541138 33.63642 41.050537 27.229004C 34.973766 21.50829 28.391012 19.737574 20.28125 19.769531C 19.491245 19.76429 18.701242 19.759048 17.887299 19.753647C 16.225008 19.747257 14.562672 19.748524 12.900391 19.75708C 10.380676 19.76558 7.8632407 19.736805 5.34375 19.705078C -4.7238817 19.65964 -14.265977 19.640938 -21.195312 28.078125z" stroke="none"  fill="#164194" fill-rule="nonzero" />
	<path transform="matrix(1 0 0 1 856.28394 151.38477)" d="M0 0C 1.2486736 -0.00930542 2.497347 -0.01861084 3.7838593 -0.02819824C 5.1401787 -0.01260225 6.496487 0.00398367 7.852783 0.02148438C 9.256576 0.02319764 10.660371 0.02312761 12.064163 0.0213623C 15.005652 0.02301401 17.946379 0.04167128 20.887695 0.07324219C 24.632116 0.1127371 28.37553 0.11730782 32.12012 0.10977936C 35.02095 0.10668659 37.92156 0.11891423 40.82234 0.13591003C 42.201225 0.1428767 43.580143 0.14607237 44.95905 0.1452179C 58.39484 0.15786111 69.70517 2.4180584 79.94653 11.619141C 88.18898 20.26366 91.83902 29.938726 91.954346 41.71289C 91.96242 42.502396 91.97049 43.2919 91.978806 44.10533C 91.992615 45.77715 92.00335 47.448994 92.01123 49.12085C 92.022705 50.812992 92.043076 52.5051 92.072754 54.19702C 92.33431 69.12651 90.422325 81.12446 79.93872 92.552734C 68.12823 103.75942 52.87613 104.92954 37.317627 104.916016C 36.19843 104.9203 35.07923 104.92458 33.926117 104.929C 31.58511 104.93469 29.244085 104.93528 26.903076 104.93091C 23.328716 104.92773 19.755167 104.951355 16.180908 104.97656C 13.893148 104.978836 11.605388 104.97954 9.317627 104.978516C 8.257101 104.987724 7.196575 104.99693 6.1039124 105.006424C 0.21560968 104.969696 -4.1325536 104.57257 -9.283936 101.615234C -11.895286 97.69821 -11.586781 94.36359 -11.590332 89.816895C -11.598656 88.917404 -11.606979 88.017914 -11.615555 87.09117C -11.639687 84.11217 -11.648431 81.133385 -11.655029 78.1543C -11.663993 76.08548 -11.673115 74.01666 -11.682388 71.947845C -11.69889 67.608444 -11.70658 63.26912 -11.709473 58.929688C -11.714858 53.36866 -11.752541 47.80836 -11.798217 42.247536C -11.827956 37.973576 -11.835196 33.699787 -11.836199 29.425732C -11.840407 27.375591 -11.852866 25.325449 -11.873716 23.27541C -11.900566 20.407185 -11.895824 17.54065 -11.883301 14.672363C -11.898135 13.825434 -11.91297 12.978505 -11.928253 12.105911C -11.876308 7.9292355 -11.6184435 6.0874476 -9.139221 2.587616C -5.773731 0.2627942 -4.059835 -0.0076123 0 0zM7.7160645 19.615234C 7.7160645 41.065235 7.7160645 62.515236 7.7160645 84.615234C 14.95544 84.67711 22.194815 84.73898 29.653564 84.802734C 31.920944 84.83005 34.188324 84.85736 36.524414 84.8855C 38.34741 84.89427 40.170406 84.90191 41.99341 84.9082C 42.918995 84.92355 43.84458 84.938896 44.798218 84.95471C 52.403706 84.95773 58.632336 83.65166 65.028564 79.427734C 72.63391 71.46865 72.9176 62.937687 72.966064 52.427734C 72.98669 51.328808 73.00732 50.22988 73.028564 49.097656C 73.06623 41.20231 72.140076 34.717415 68.091064 27.865234C 60.17356 20.36444 52.034077 19.45985 41.602783 19.517578C 40.312897 19.519089 40.312897 19.519089 38.99695 19.52063C 35.79914 19.525843 32.601353 19.539804 29.403564 19.552734C 18.668251 19.583672 18.668251 19.583672 7.7160645 19.615234z" stroke="none"  fill="#164194" fill-rule="nonzero" />
	<path transform="matrix(1 0 0 1 979.5105 151.77295)" d="M0 0C 0.86850584 -0.00029205 1.7370117 -0.00058411 2.631836 -0.00088501C 5.5050654 0.00050931 8.3780365 0.01607534 11.251221 0.03173828C 13.242333 0.03546805 15.233448 0.03831519 17.224564 0.04031372C 22.467266 0.04795303 27.709856 0.06760412 32.952515 0.08972168C 38.30142 0.11017366 43.650337 0.11931405 48.999268 0.12939453C 59.496067 0.15084971 69.99276 0.18603432 80.4895 0.22705078C 80.4895 6.497051 80.4895 12.767051 80.4895 19.22705C 55.739502 19.22705 30.989502 19.22705 5.489502 19.22705C 5.572002 29.230175 5.654502 39.2333 5.739502 49.53955C 5.755293 52.69687 5.771084 55.854183 5.7873535 59.107178C 5.8167095 61.60158 5.8475327 64.09597 5.880127 66.59033C 5.8812547 67.89208 5.882383 69.19383 5.883545 70.535034C 5.903364 71.77314 5.9231834 73.011246 5.9436035 74.286865C 5.952486 75.36386 5.9613686 76.44086 5.97052 77.55049C 6.268832 80.28413 6.268832 80.28413 8.093628 82.07129C 11.300597 83.618324 13.809342 83.62741 17.369385 83.659424C 18.05272 83.66962 18.736053 83.67981 19.440094 83.69031C 21.691021 83.72042 23.941525 83.7297 26.192627 83.73877C 27.756342 83.755615 29.320044 83.773766 30.883728 83.79317C 34.99361 83.84066 39.103436 83.870476 43.2135 83.89661C 47.40978 83.926414 51.605865 83.972946 55.802002 84.01807C 64.03109 84.10409 72.26016 84.16989 80.4895 84.22705C 80.4895 90.82705 80.4895 97.42705 80.4895 104.22705C 71.66573 104.2724 62.842037 104.30902 54.018177 104.33067C 49.920033 104.34107 45.82197 104.355156 41.723877 104.37793C 37.762188 104.39981 33.80058 104.41165 29.838833 104.41681C 28.334316 104.42047 26.829803 104.427635 25.325321 104.43851C 13.014653 104.523865 2.1991687 104.574295 -7.510498 96.22705C -13.629665 89.854164 -14.754259 82.20055 -14.785156 73.605225C -14.790267 72.89033 -14.795378 72.17542 -14.800644 71.43886C -14.81441 69.10384 -14.813594 66.769135 -14.811279 64.43408C -14.815171 62.798393 -14.819507 61.16271 -14.824265 59.527023C -14.831697 56.111977 -14.831455 52.697033 -14.826172 49.281982C -14.820359 44.91063 -14.837365 40.5397 -14.860517 36.168415C -14.875255 32.79605 -14.876126 29.423788 -14.873007 26.051397C -14.873519 24.439482 -14.878743 22.82756 -14.888819 21.215677C -14.901177 18.963737 -14.894397 16.712622 -14.8828125 14.460693C -14.883757 12.541639 -14.883757 12.541639 -14.88472 10.583817C -14.480041 6.9538503 -13.716217 5.1069407 -11.510498 2.2270508C -7.646872 -0.34869984 -4.477086 -0.03919107 0 0z" stroke="none"  fill="#164194" fill-rule="nonzero" />
	<path transform="matrix(1 0 0 1 645.28516 151.60938)" d="M0 0C 1.6686485 0.00747213 3.3373058 0.01316046 5.005966 0.01715088C 9.370888 0.03233086 13.735267 0.07154533 18.099976 0.1159668C 22.564623 0.1570856 27.029358 0.17519715 31.49414 0.1953125C 40.23465 0.2380484 48.974617 0.30833426 57.714844 0.390625C 57.714844 6.660625 57.714844 12.930625 57.714844 19.390625C 55.64034 19.415682 53.565834 19.440737 51.428467 19.466553C 44.579197 19.549978 37.730003 19.63867 30.880833 19.729965C 26.727629 19.78516 22.574419 19.838575 18.421143 19.88794C 14.414043 19.93563 10.407031 19.987976 6.400034 20.043566C 4.8702283 20.063967 3.3403995 20.082684 1.8105526 20.099699C -0.32991636 20.12379 -2.4702241 20.15384 -4.6105957 20.185303C -6.4392695 20.20862 -6.4392695 20.20862 -8.304886 20.232407C -11.339576 20.26127 -11.339576 20.26127 -14.285156 21.390625C -15.583015 23.986343 -15.426424 25.895727 -15.446289 28.80249C -15.455896 29.93384 -15.465504 31.065187 -15.475403 32.23082C -15.479652 33.45789 -15.483903 34.684963 -15.488281 35.94922C -15.496831 37.83206 -15.496831 37.83206 -15.505554 39.752945C -15.515014 42.41191 -15.521906 45.070766 -15.525391 47.729736C -15.530879 51.137405 -15.554914 54.544678 -15.583363 57.952225C -15.60646 61.20119 -15.608437 64.45018 -15.613281 67.69922C -15.625628 68.92426 -15.637975 70.149315 -15.650696 71.41148C -15.647695 72.54598 -15.644693 73.68049 -15.641602 74.849365C -15.645247 75.84927 -15.648892 76.849174 -15.652649 77.87938C -15.452629 80.37914 -15.452629 80.37914 -14.185776 82.20993C -11.312187 83.99505 -8.881631 83.79281 -5.518799 83.823C -4.835611 83.83319 -4.152423 83.84338 -3.448532 83.85388C -1.1921676 83.884056 1.0637727 83.89329 3.3203125 83.90234C 4.8854566 83.91919 6.450587 83.93734 8.015701 83.95674C 12.133817 84.00429 16.251879 84.034065 20.370178 84.06018C 24.573069 84.089966 28.775768 84.136505 32.978516 84.18164C 41.22388 84.26772 49.469227 84.333496 57.714844 84.390625C 57.714844 90.99062 57.714844 97.59062 57.714844 104.390625C 48.873802 104.43595 40.032837 104.47258 31.191704 104.49425C 27.085686 104.504654 22.97975 104.518745 18.87378 104.541504C 14.90561 104.563354 10.937522 104.57522 6.9692974 104.58038C 5.461163 104.58405 3.9530327 104.591225 2.444933 104.60208C -8.866687 104.68024 -19.053473 104.68305 -28.285156 97.390625C -35.509113 90.16667 -36.62538 83.07847 -36.701996 73.26222C -36.695923 71.97557 -36.68985 70.68892 -36.683594 69.36328C -36.68562 68.00622 -36.688534 66.649155 -36.69229 65.2921C -36.696693 62.458706 -36.690353 59.625595 -36.67627 56.792236C -36.659195 53.18349 -36.66902 49.575417 -36.686985 45.966698C -36.697895 43.167183 -36.694347 40.36782 -36.686604 37.568295C -36.683666 35.598183 -36.692684 33.628067 -36.701996 31.657974C -36.635223 23.080374 -36.096256 14.774159 -30.160156 8.078125C -29.641953 7.463242 -29.12375 6.8483596 -28.589844 6.2148438C -19.913334 -0.6528351 -10.528048 -0.1391247 0 0z" stroke="none"  fill="#164194" fill-rule="nonzero" />
	<path transform="matrix(1 0 0 1 278 152)" d="M0 0C 6.6 0 13.2 0 20 0C 20 34.32 20 68.64 20 104C 13.4 104 6.8 104 0 104C 0 69.68 0 35.36 0 0z" stroke="none"  fill="#164194" fill-rule="nonzero" />
	<path transform="matrix(1 0 0 1 991 194)" d="M0 0C 19.8 0 39.6 0 60 0C 60 6.27 60 12.54 60 19C 40.2 19 20.4 19 0 19C 0 12.73 0 6.46 0 0z" stroke="none"  fill="#164194" fill-rule="nonzero" />
	<path transform="matrix(1 0 0 1 225 284)" d="M0 0C 2.31 0 4.62 0 7 0C 7.8397026 2.9149683 8.67196 5.8317184 9.5 8.75C 9.738477 9.575 9.9769535 10.4 10.222656 11.25C 10.448242 12.049219 10.673828 12.848437 10.90625 13.671875C 11.115723 14.405029 11.325195 15.138184 11.541016 15.893555C 12 18 12 18 12 22C 12.66 22 13.32 22 14 22C 14.154688 20.422188 14.154688 20.422188 14.3125 18.8125C 16.313784 2.6862166 16.313784 2.6862166 19 0C 21.31 0 23.62 0 26 0C 26 12.21 26 24.42 26 37C 24.35 37 22.7 37 21 37C 20.67 31.06 20.34 25.12 20 19C 18.35 24.94 16.7 30.88 15 37C 13.35 36.67 11.7 36.34 10 36C 8.68 30.39 7.36 24.78 6 19C 5.67 24.94 5.34 30.88 5 37C 3.35 37 1.7 37 0 37C 0 24.79 0 12.58 0 0z" stroke="none"  fill="#164194" fill-rule="nonzero" />
	<path transform="matrix(1 0 0 1 806 284)" d="M0 0C 2.31 0 4.62 0 7 0C 8.65 6.6 10.3 13.2 12 20C 13.448017 17.103966 14.339599 15.129658 15.0703125 12.109375C 15.244336 11.400391 15.41836 10.691406 15.597656 9.9609375C 15.77168 9.231328 15.9457035 8.5017185 16.125 7.75C 16.306757 7.004922 16.488516 6.259844 16.675781 5.4921875C 17.121475 3.6624973 17.56132 1.8313843 18 0C 20.31 0 22.62 0 25 0C 25 12.21 25 24.42 25 37C 23.68 37 22.36 37 21 37C 20.505 27.1 20.505 27.1 20 17C 18.35 23.6 16.7 30.2 15 37C 13.35 37 11.7 37 10 37C 8.68 31.72 7.36 26.44 6 21C 5.67 26.28 5.34 31.56 5 37C 3.35 37 1.7 37 0 37C 0 24.79 0 12.58 0 0z" stroke="none"  fill="#164194" fill-rule="nonzero" />
	<path transform="matrix(1 0 0 1 582 284)" d="M0 0C 1.98 0 3.96 0 6 0C 8.64 6.93 11.28 13.86 14 21C 14.33 14.07 14.66 7.14 15 0C 16.65 0 18.3 0 20 0C 20 12.21 20 24.42 20 37C 18.02 37 16.04 37 14 37C 13.22728 35.16746 12.45693 33.333923 11.6875 31.5C 11.043613 29.968594 11.043613 29.968594 10.386719 28.40625C 8.850735 24.633354 7.4303265 20.814203 6 17C 5.67 23.6 5.34 30.2 5 37C 3.35 37 1.7 37 0 37C 0 24.79 0 12.58 0 0z" stroke="none"  fill="#164194" fill-rule="nonzero" />
	<path transform="matrix(1 0 0 1 504 284)" d="M0 0C 11.423077 0 11.423077 0 15 3C 16.355503 5.7110076 16.169172 7.9133916 16.1875 10.9375C 16.20168 11.998399 16.215858 13.059297 16.230469 14.152344C 16 17 16 17 14 20C 14.399506 25.792833 15.655321 31.360182 17 37C 15.35 37 13.7 37 12 37C 9.94638 31.910593 8.568208 27.454792 8 22C 7.01 22 6.02 22 5 22C 5 26.95 5 31.9 5 37C 3.35 37 1.7 37 0 37C 0 24.79 0 12.58 0 0zM5 5C 5 8.96 5 12.92 5 17C 9.630199 16.5547 9.630199 16.5547 11 15C 11.229182 10.983429 11.229182 10.983429 11 7C 10.34 6.34 9.68 5.68 9 5C 7.68 5 6.36 5 5 5z" stroke="none"  fill="#164194" fill-rule="nonzero" />
	<path transform="matrix(1 0 0 1 779.25 284.75)" d="M0 0C 2.1965446 1.5689604 2.7495506 2.7449822 3.75 5.25C 4.1754155 9.385037 4.074283 13.5328455 4.0625 17.6875C 4.0786133 18.81994 4.0947266 19.952383 4.111328 21.11914C 4.111973 22.21291 4.112617 23.306679 4.1132812 24.433594C 4.1162624 25.429314 4.119243 26.425034 4.1223145 27.450928C 3.687801 30.717615 2.6800425 32.601227 0.75 35.25C -2.4350328 36.842518 -5.7832403 36.641296 -9.25 36.25C -12.486134 34.507465 -13.073953 33.77814 -14.25 30.25C -14.483933 26.10801 -14.435174 21.960398 -14.4375 17.8125C -14.449746 16.667168 -14.461992 15.521836 -14.474609 14.341797C -14.476543 13.240293 -14.478477 12.138789 -14.480469 11.003906C -14.484577 9.996585 -14.488687 8.989263 -14.49292 7.951416C -14.244246 5.186008 -13.732093 3.5760767 -12.25 1.25C -8.466784 -1.4522974 -4.3305435 -1.4435145 0 0zM-7.25 4.25C -9.819887 6.8198867 -9.507068 7.8391004 -9.515625 11.40625C -9.518203 12.428476 -9.5207815 13.450703 -9.5234375 14.503906C -9.515703 15.575117 -9.507969 16.646328 -9.5 17.75C -9.507734 18.82121 -9.515469 19.892422 -9.5234375 20.996094C -9.52086 22.01832 -9.518281 23.040546 -9.515625 24.09375C -9.51337 25.03412 -9.511113 25.974493 -9.508789 26.94336C -9.470987 29.44492 -9.470987 29.44492 -7.25 31.25C -3.9431653 30.960167 -3.9431653 30.960167 -1.25 29.25C -0.99791276 25.444118 -1.0647765 21.625746 -1.0625 17.8125C -1.0502539 16.736778 -1.0380079 15.661055 -1.0253906 14.552734C -1.023457 13.525996 -1.0215235 12.499258 -1.0195312 11.441406C -1.0154223 10.494671 -1.0113134 9.547935 -1.0070801 8.57251C -1.023835 6.0563564 -1.023835 6.0563564 -3.25 4.25C -4.57 4.25 -5.89 4.25 -7.25 4.25z" stroke="none"  fill="#164194" fill-rule="nonzero" />
	<path transform="matrix(1 0 0 1 310 284)" d="M0 0C 1.65 0 3.3 0 5 0C 5 5.28 5 10.56 5 16C 5.66 16 6.32 16 7 16C 7.1933594 15.263946 7.3867188 14.52789 7.5859375 13.769531C 7.8463283 12.793711 8.106719 11.81789 8.375 10.8125C 8.757852 9.368106 8.757852 9.368106 9.1484375 7.8945312C 9.947663 5.177898 10.903136 2.6086283 12 0C 13.65 0 15.3 0 17 0C 15.285882 8.205882 15.285882 8.205882 13.875 12.125C 11.726093 19.185694 13.679414 24.636728 16.125 31.328125C 17 34 17 34 17 37C 15.35 37 13.7 37 12 37C 11.1628065 34.70968 10.330107 32.41789 9.5 30.125C 9.261523 29.474024 9.0230465 28.823048 8.777344 28.152344C 7 23.226562 7 23.226562 7 21C 6.34 21 5.68 21 5 21C 5 26.28 5 31.56 5 37C 3.35 37 1.7 37 0 37C 0 24.79 0 12.58 0 0z" stroke="none"  fill="#164194" fill-rule="nonzero" />
	<path transform="matrix(1 0 0 1 686 284)" d="M0 0C 1.65 0 3.3 0 5 0C 5.0250564 0.86802244 5.0501122 1.7360449 5.0759277 2.630371C 5.1709948 5.8471317 5.270232 9.063728 5.3723145 12.280273C 5.4156585 13.673126 5.457334 15.066031 5.4973145 16.458984C 5.5550294 18.459766 5.619219 20.460358 5.6835938 22.460938C 5.7202516 23.665405 5.7569094 24.869873 5.7946777 26.11084C 5.8105297 28.939964 5.8105297 28.939964 7 31C 8.65 30.67 10.3 30.34 12 30C 12.33 20.1 12.66 10.2 13 0C 14.65 0 16.3 0 18 0C 18.123972 4.465643 18.21451 8.930365 18.274658 13.397217C 18.299742 14.915298 18.333817 16.43326 18.377197 17.950928C 18.438133 20.138159 18.466269 22.32379 18.488281 24.511719C 18.514465 25.82616 18.54065 27.1406 18.567627 28.494873C 17.860962 32.858566 16.403408 34.28124 13 37C 10.9375 37.69922 10.9375 37.69922 9 37.6875C 8.360625 37.71199 7.72125 37.736485 7.0625 37.76172C 3.7285917 36.530445 1.798614 33.956398 0 31C -0.56762695 27.473145 -0.56762695 27.473145 -0.48828125 23.632812C -0.4812065 22.953224 -0.47413176 22.273638 -0.46684265 21.573456C -0.43906146 19.422806 -0.37636888 17.27485 -0.3125 15.125C -0.28739542 13.658892 -0.26458603 12.192743 -0.24414062 10.7265625C -0.18929288 7.15018 -0.1031413 3.5753534 0 0z" stroke="none"  fill="#164194" fill-rule="nonzero" />
	<path transform="matrix(1 0 0 1 654 284)" d="M0 0C 2.31 0 4.62 0 7 0C 8.882386 7.7924 10.028813 15.625297 11.125 23.5625C 11.306758 24.857363 11.488516 26.152227 11.675781 27.486328C 12.120394 30.657118 12.561714 33.82833 13 37C 11.35 37 9.7 37 8 37C 7.67 35.68 7.34 34.36 7 33C 4.69 33 2.38 33 0 33C 0 34.32 0 35.64 0 37C -1.65 37 -3.3 37 -5 37C -4.4238124 28.492819 -3.342073 20.157585 -1.9375 11.75C -1.7512305 10.611758 -1.564961 9.4735155 -1.3730469 8.300781C -0.91952586 5.53314 -0.46179384 2.7662704 0 0zM3 13C 2.34 17.95 1.68 22.9 1 28C 2.65 28 4.3 28 6 28C 5.885813 26.061832 5.758266 24.124449 5.625 22.1875C 5.520586 20.569082 5.520586 20.569082 5.4140625 18.917969C 5.1880426 15.813738 5.1880426 15.813738 3 13z" stroke="none"  fill="#164194" fill-rule="nonzero" />
	<path transform="matrix(1 0 0 1 277 284)" d="M0 0C 2.31 0 4.62 0 7 0C 9.448539 12.277426 11.312162 24.5972 13 37C 11.35 37 9.7 37 8 37C 7.67 35.68 7.34 34.36 7 33C 4.69 33 2.38 33 0 33C 0 34.32 0 35.64 0 37C -1.65 37 -3.3 37 -5 37C -4.4238124 28.492819 -3.342073 20.157585 -1.9375 11.75C -1.7512305 10.611758 -1.564961 9.4735155 -1.3730469 8.300781C -0.91952586 5.53314 -0.46179384 2.7662704 0 0zM3 13C 2.34 17.95 1.68 22.9 1 28C 2.65 28 4.3 28 6 28C 5.885813 26.061832 5.758266 24.124449 5.625 22.1875C 5.520586 20.569082 5.520586 20.569082 5.4140625 18.917969C 5.1880426 15.813738 5.1880426 15.813738 3 13z" stroke="none"  fill="#164194" fill-rule="nonzero" />
	<path transform="matrix(1 0 0 1 858 284)" d="M0 0C 2.31 0 4.62 0 7 0C 7.718228 4.3040175 8.430091 8.609026 9.13623 12.915039C 9.377022 14.377889 9.619511 15.84046 9.86377 17.302734C 10.215799 19.41204 10.561591 21.522291 10.90625 23.632812C 11.115723 24.900122 11.325195 26.16743 11.541016 27.473145C 11.96113 30.70132 12.087476 33.75028 12 37C 10.35 37 8.7 37 7 37C 7 35.68 7 34.36 7 33C 4.69 33 2.38 33 0 33C -0.33 34.32 -0.66 35.64 -1 37C -2.65 37 -4.3 37 -6 37C -5.30974 32.212296 -4.615887 27.425129 -3.9187012 22.638428C -3.6820352 21.00999 -3.4463513 19.38141 -3.21167 17.752686C -2.8741658 15.411563 -2.5331326 13.070978 -2.1914062 10.730469C -2.0871987 10.002244 -1.982991 9.274019 -1.8756256 8.523727C -1.4405841 5.5641966 -0.94837433 2.845123 0 0zM3 12C 2.6610434 13.728073 2.3290846 15.45752 2 17.1875C 1.814375 18.150429 1.62875 19.11336 1.4375 20.105469C 1.0312239 22.79342 0.92066425 25.28771 1 28C 2.65 28 4.3 28 6 28C 5.34 22.72 4.68 17.44 4 12C 3.67 12 3.34 12 3 12z" stroke="none"  fill="#164194" fill-rule="nonzero" />
	<path transform="matrix(1 0 0 1 542 284)" d="M0 0C 1.65 0 3.3 0 5 0C 5.33 10.23 5.66 20.46 6 31C 7.65 31 9.3 31 11 31C 12.100708 27.697878 12.206271 25.059168 12.316406 21.582031C 12.358301 20.328419 12.400195 19.074804 12.443359 17.783203C 12.482676 16.472872 12.521992 15.1625395 12.5625 13.8125C 12.60571 12.4772005 12.649325 11.141913 12.693359 9.806641C 12.799565 6.537867 12.90161 3.2690167 13 0C 14.32 0 15.64 0 17 0C 17.099018 4.6264014 17.171537 9.252184 17.219727 13.879395C 17.239819 15.452746 17.267097 17.026024 17.301758 18.599121C 17.350386 20.863142 17.372992 23.126175 17.390625 25.390625C 17.41127 26.091814 17.431915 26.793005 17.453186 27.515442C 17.454756 30.945463 17.238218 32.691463 15.114258 35.442383C 12.688836 37.22924 11.484267 37.540882 8.5 37.5C 7.3707814 37.51547 7.3707814 37.51547 6.21875 37.53125C 3.0542529 36.773552 1.9861436 35.572422 0 33C -0.34959406 30.318275 -0.46923774 28.060621 -0.390625 25.390625C -0.3849652 24.663815 -0.37930542 23.937006 -0.37347412 23.188171C -0.35114554 20.874767 -0.30096048 18.562933 -0.25 16.25C -0.22993024 14.678408 -0.2116803 13.1067915 -0.1953125 11.535156C -0.15129294 7.6895027 -0.08229375 3.8450172 0 0z" stroke="none"  fill="#164194" fill-rule="nonzero" />
	<path transform="matrix(1 0 0 1 966 284)" d="M0 0C 3.187504 2.180924 3.8786807 3.474283 4.75 7.25C 4.87375 8.61125 4.87375 8.61125 5 10C 3.35 10 1.7 10 0 10C -0.66 8.68 -1.32 7.36 -2 6C -3.32 6.33 -4.64 6.66 -6 7C -6 15.25 -6 23.5 -6 32C -1.9918272 31.452662 -1.9918272 31.452662 -0.5 28.9375C -0.005 28.298124 0.49 27.65875 1 27C 2.32 27 3.64 27 5 27C 4.6975093 30.327398 4.287658 32.56276 2.4375 35.375C -0.5335258 37.355682 -2.5045974 37.512848 -6 37.628906C -9.138812 36.641895 -10.198582 34.686817 -12 32C -12.803737 27.529974 -12.603115 23.03459 -12.5625 18.5C -12.586348 17.27668 -12.610195 16.05336 -12.634766 14.792969C -12.618416 4.8194613 -12.618416 4.8194613 -9.6875 1.6914062C -6.1488724 -0.53566605 -4.1069736 -0.67205024 0 0z" stroke="none"  fill="#164194" fill-rule="nonzero" />
	<path transform="matrix(1 0 0 1 351 284)" d="M0 0C 4.29 0 8.58 0 13 0C 13 1.65 13 3.3 13 5C 10.36 5 7.72 5 5 5C 5 8.63 5 12.26 5 16C 7.31 16 9.62 16 12 16C 12 17.65 12 19.3 12 21C 9.69 21 7.38 21 5 21C 5 24.63 5 28.26 5 32C 7.64 32 10.28 32 13 32C 13 33.65 13 35.3 13 37C 8.71 37 4.42 37 0 37C 0 24.79 0 12.58 0 0z" stroke="none"  fill="#164194" fill-rule="nonzero" />
	<path transform="matrix(1 0 0 1 888 284)" d="M0 0C 5.28 0 10.56 0 16 0C 16 1.65 16 3.3 16 5C 14.02 5 12.04 5 10 5C 10 15.56 10 26.12 10 37C 8.35 37 6.7 37 5 37C 5 26.44 5 15.88 5 5C 3.35 5 1.7 5 0 5C 0 3.35 0 1.7 0 0z" stroke="none"  fill="#164194" fill-rule="nonzero" />
	<path transform="matrix(1 0 0 1 727 284)" d="M0 0C 5.28 0 10.56 0 16 0C 16 1.65 16 3.3 16 5C 14.02 5 12.04 5 10 5C 10 15.56 10 26.12 10 37C 8.35 37 6.7 37 5 37C 5 26.44 5 15.88 5 5C 3.35 5 1.7 5 0 5C 0 3.35 0 1.7 0 0z" stroke="none"  fill="#164194" fill-rule="nonzero" />
	<path transform="matrix(1 0 0 1 441 284)" d="M0 0C 5.28 0 10.56 0 16 0C 16 1.65 16 3.3 16 5C 14.35 5 12.7 5 11 5C 11 15.56 11 26.12 11 37C 9.35 37 7.7 37 6 37C 6 26.44 6 15.88 6 5C 4.02 5 2.04 5 0 5C 0 3.35 0 1.7 0 0z" stroke="none"  fill="#164194" fill-rule="nonzero" />
	<path transform="matrix(1 0 0 1 926 284)" d="M0 0C 1.65 0 3.3 0 5 0C 5 12.21 5 24.42 5 37C 3.35 37 1.7 37 0 37C 0 24.79 0 12.58 0 0z" stroke="none"  fill="#164194" fill-rule="nonzero" />
	<path transform="matrix(1 0 0 1 414 284)" d="M0 0C 1.65 0 3.3 0 5 0C 5 12.21 5 24.42 5 37C 3.35 37 1.7 37 0 37C 0 24.79 0 12.58 0 0z" stroke="none"  fill="#164194" fill-rule="nonzero" />
</g>
</svg>
